<svg width="148" height="27" viewBox="0 0 148 27" fill="none" xmlns="http://www.w3.org/2000/svg">
<path d="M8.72266 16.8911C8.72266 17.3499 9.09497 17.7221 9.55371 17.7222H17.4463V25.6147C17.4461 26.0734 17.0739 26.4448 16.6152 26.4448H8.72266C3.90528 26.4446 7.98867e-05 22.5396 0 17.7222C0 13.055 3.6653 9.24377 8.27441 9.01025L8.72266 8.99854V16.8911ZM17.4463 0.275879C22.2637 0.275937 26.1687 4.18114 26.1689 8.99854C26.1689 13.6655 22.5043 17.4766 17.8955 17.7104L17.4463 17.7222V9.82959C17.4462 9.37083 17.074 8.99854 16.6152 8.99854H8.72266V1.10693C8.72266 0.648168 9.09497 0.275969 9.55371 0.275879H17.4463Z" fill="#CB3CFF"/>
<path d="M9.46031 0.275879C9.05318 0.275879 8.72314 0.605917 8.72314 1.01304L8.72315 8.99895H16.7091C17.1162 8.99895 17.4462 9.32899 17.4462 9.73611L17.4462 17.722C22.2638 17.722 26.1693 13.8166 26.1693 8.99895C26.1693 4.18133 22.2638 0.275879 17.4462 0.275879H9.46031Z" fill="#00C2FF"/>
<path d="M34.0799 19.3604H40.1199C44.3799 19.3604 46.7799 16.4404 46.7799 12.0804C46.7799 7.70035 44.3999 4.78035 40.1199 4.78035H34.0799V19.3604ZM36.7199 17.0804V7.04035H39.7199C42.2999 7.04035 44.0799 8.46035 44.0799 12.0204C44.0799 15.6404 42.2999 17.0804 39.7199 17.0804H36.7199ZM52.6138 19.5404C54.3338 19.5404 55.6138 18.6804 56.1338 17.3804H56.2738V19.3604H58.7738V8.72035H56.3738L56.2738 10.6804H56.1338C55.6138 9.38035 54.3338 8.52035 52.6138 8.52035C50.0538 8.52035 48.3338 10.4204 48.3338 14.0404C48.3338 17.6404 50.0538 19.5404 52.6138 19.5404ZM53.5538 17.5004C51.9538 17.5004 50.8738 16.3604 50.8738 14.0404C50.8738 11.7004 51.9538 10.5604 53.5538 10.5604C55.3338 10.5604 56.2338 11.9604 56.2338 13.4804V14.5804C56.2338 16.0804 55.3338 17.5004 53.5538 17.5004ZM65.5947 19.5604C68.4747 19.5604 70.2547 18.5004 70.2547 16.2404C70.2547 13.7404 68.3347 13.2804 66.1147 12.9804C64.4347 12.7604 63.6747 12.4604 63.6747 11.5404C63.6747 10.7604 64.3347 10.2404 65.5947 10.2404C66.7947 10.2404 67.5747 10.7804 67.5947 11.8604H70.0347C69.9947 9.76035 68.3347 8.52035 65.6547 8.52035C62.9747 8.52035 61.1747 9.66035 61.1747 11.8004C61.1747 14.0604 62.9547 14.6204 65.3547 14.9604C67.0147 15.2004 67.7347 15.4004 67.7347 16.4804C67.7347 17.3404 67.0147 17.8404 65.6547 17.8404C64.3347 17.8404 63.3747 17.3004 63.3547 16.0204H60.8947C60.8747 18.1404 62.5747 19.5604 65.5947 19.5604ZM72.3922 19.3604H74.8922V13.5004C74.8922 11.9004 75.8722 10.5804 77.5522 10.5804C79.1122 10.5804 79.7922 11.5204 79.7922 13.5204V19.3604H82.2922V12.9804C82.2922 9.76035 80.6722 8.52035 78.5122 8.52035C76.9722 8.52035 75.6122 9.28035 75.0122 10.7404H74.8922V4.78035H72.3922V19.3604ZM88.4927 19.5404C90.2127 19.5404 91.4927 18.6804 92.0127 17.3804H92.1527L92.2327 19.3604H94.6327L94.6527 4.78035H92.1527V10.6804H92.0127C91.4927 9.38035 90.2127 8.52035 88.4927 8.52035C85.9327 8.52035 84.2127 10.4204 84.2127 14.0404C84.2127 17.6404 85.9327 19.5404 88.4927 19.5404ZM89.4327 17.5004C87.8327 17.5004 86.7527 16.3604 86.7527 14.0404C86.7527 11.7004 87.8327 10.5604 89.4327 10.5604C91.2127 10.5604 92.1127 11.9604 92.1127 13.4804V14.5804C92.1127 16.0804 91.2127 17.5004 89.4327 17.5004ZM100.954 19.5404C102.674 19.5404 103.954 18.6804 104.474 17.3804H104.614V19.3604H107.114V8.72035H104.714L104.614 10.6804H104.474C103.954 9.38035 102.674 8.52035 100.954 8.52035C98.3937 8.52035 96.6737 10.4204 96.6737 14.0404C96.6737 17.6404 98.3937 19.5404 100.954 19.5404ZM101.894 17.5004C100.294 17.5004 99.2137 16.3604 99.2137 14.0404C99.2137 11.7004 100.294 10.5604 101.894 10.5604C103.674 10.5604 104.574 11.9604 104.574 13.4804V14.5804C104.574 16.0804 103.674 17.5004 101.894 17.5004ZM109.795 19.3604H112.295V13.5404C112.375 11.8804 113.295 10.9204 115.235 10.9204C115.495 10.9204 115.735 10.9404 115.895 10.9404V8.58035H115.275C113.895 8.58035 112.735 9.14035 112.255 10.5004H112.175L112.055 8.72035H109.795V19.3604ZM117.529 19.3604H120.069V16.2204L121.749 14.5604L122.389 15.6604L124.789 19.3604H127.729L123.509 12.9004L127.629 8.72035H124.529L120.969 12.4404L120.069 13.4604V4.78035H117.529V19.3604ZM132.634 19.3604H135.694L139.674 13.4204H139.754L143.714 19.3604H146.854L141.494 11.5204L146.154 4.78035H143.054L139.754 9.82035H139.674L136.374 4.78035H133.274L137.994 11.5404L132.634 19.3604Z" fill="white"/>
</svg>
