<svg width="41" height="40" viewBox="0 0 41 40" fill="none" xmlns="http://www.w3.org/2000/svg">
<rect opacity="0.2" x="0.263672" width="39.8159" height="40" rx="19.908" fill="#CB3CFF"/>
<path d="M17.3359 19.4798C17.8457 19.4798 18.313 19.243 18.691 18.8792C18.2945 18.1682 18.0682 17.3638 18.0682 16.592C18.0682 15.9374 18.2261 15.32 18.504 14.7748C18.1593 14.5634 17.7564 14.4395 17.3242 14.4395C16.061 14.4395 15.0371 15.4783 15.0371 16.7595C15.0371 18.0408 16.0727 19.4798 17.3359 19.4798Z" fill="#CB3CFF"/>
<path d="M18.8742 20.58C18.6509 20.5318 18.4199 20.5052 18.1824 20.5052H16.4815C14.6715 20.5052 13.2041 21.9772 13.2041 23.7931L13.2118 24.1819C13.2118 24.6892 13.6218 25.1006 14.1276 25.1006H15.8047C15.887 23.0803 17.1252 21.3579 18.8742 20.58Z" fill="#CB3CFF"/>
<path d="M22.0165 19.9647C23.5827 19.9647 24.8381 18.1804 24.8381 16.5917C24.8381 15.003 23.5683 13.715 22.0021 13.715C20.4358 13.715 19.166 15.003 19.166 16.5917C19.1662 18.1804 20.4503 19.9647 22.0165 19.9647Z" fill="#CB3CFF"/>
<path d="M27.13 25.3137C27.13 23.062 25.3105 21.2367 23.0662 21.2367H20.9571C18.7128 21.2367 16.8933 23.062 16.8933 25.3137L16.903 25.7959C16.903 26.4249 17.4113 26.935 18.0385 26.935H26.0043C26.6314 26.935 27.1398 26.4249 27.1398 25.7959L27.13 25.3137Z" fill="#CB3CFF"/>
</svg>
