<svg width="40" height="40" viewBox="0 0 40 40" fill="none" xmlns="http://www.w3.org/2000/svg">
<rect opacity="0.2" x="0.180176" width="39.8159" height="40" rx="19.908" fill="#05C168"/>
<path d="M23.6274 12.8887C22.9406 12.8887 22.2632 13.0493 21.6489 13.3579C21.0346 13.6665 20.5003 14.1145 20.0882 14.6664C19.5311 13.9202 18.7544 13.369 17.8681 13.0908C16.9818 12.8127 16.0309 12.8218 15.15 13.1167C14.2691 13.4117 13.503 13.9777 12.9601 14.7344C12.4171 15.4911 12.125 16.4003 12.125 17.3331C12.125 22.659 19.4909 26.859 19.8006 27.0368C19.8884 27.0864 19.9875 27.1119 20.0882 27.1109C20.1889 27.1126 20.2883 27.087 20.3757 27.0368C21.7322 26.2402 23.0045 25.307 24.173 24.2516C26.7463 21.9257 28.0514 19.5998 28.0514 17.3331C28.0514 16.1544 27.5853 15.0239 26.7556 14.1904C25.926 13.3569 24.8007 12.8887 23.6274 12.8887Z" fill="#05C168"/>
</svg>
