<svg width="40" height="29" viewBox="0 0 40 29" fill="none" xmlns="http://www.w3.org/2000/svg">
<rect x="0.0269775" y="0.0703125" width="39.9089" height="28" rx="4" fill="#CB3CFF"/>
<path d="M17.635 18.8247H15.1893L16.7191 9.34558H19.1646L17.635 18.8247Z" fill="white"/>
<path d="M26.4992 9.57739C26.0168 9.3856 25.2516 9.17383 24.3056 9.17383C21.8904 9.17383 20.1896 10.4645 20.1791 12.3099C20.1591 13.6713 21.3968 14.4275 22.3226 14.8815C23.2688 15.3454 23.5905 15.6482 23.5905 16.0616C23.5808 16.6967 22.8259 16.9894 22.1217 16.9894C21.1453 16.9894 20.6221 16.8385 19.827 16.4852L19.505 16.3337L19.1627 18.4616C19.7363 18.7235 20.7931 18.9559 21.8904 18.9661C24.4566 18.9661 26.1272 17.6953 26.147 15.7288C26.1568 14.6498 25.5032 13.8229 24.0941 13.1473C23.2387 12.7136 22.7149 12.4211 22.7149 11.9773C22.7249 11.5739 23.1579 11.1607 24.1235 11.1607C24.9186 11.1405 25.5028 11.332 25.9454 11.5236L26.1666 11.6243L26.4992 9.57739Z" fill="white"/>
<path d="M29.7513 15.4666C29.9527 14.9221 30.7278 12.8144 30.7278 12.8144C30.7176 12.8347 30.9288 12.2598 31.0495 11.9069L31.2205 12.7237C31.2205 12.7237 31.6836 14.9927 31.7842 15.4666C31.4019 15.4666 30.2344 15.4666 29.7513 15.4666ZM32.7702 9.3456H30.8785C30.2951 9.3456 29.8519 9.51689 29.6002 10.1321L25.9674 18.8246H28.5336C28.5336 18.8246 28.9561 17.6547 29.0469 17.4027C29.3284 17.4027 31.8248 17.4027 32.187 17.4027C32.2572 17.7355 32.4788 18.8246 32.4788 18.8246H34.7433L32.7702 9.3456Z" fill="white"/>
<path d="M13.1464 9.34558L10.7512 15.8095L10.4895 14.4985C10.0467 12.9858 8.65794 11.3424 7.10815 10.5252L9.30203 18.8147H11.8883L15.7325 9.34558H13.1464Z" fill="white"/>
<path d="M8.52667 9.3456H4.59177L4.55151 9.53715C7.62099 10.3239 9.65384 12.2202 10.489 14.4995L9.63364 10.1425C9.49281 9.53701 9.06003 9.36557 8.52667 9.3456Z" fill="white"/>
</svg>
