<svg width="41" height="40" viewBox="0 0 41 40" fill="none" xmlns="http://www.w3.org/2000/svg">
<rect opacity="0.2" x="0.263672" width="39.8159" height="40" rx="19.908" fill="#FDB52A"/>
<path d="M13.282 25.9874C13.282 23.5366 15.2688 21.5498 17.7196 21.5498H22.624C25.0748 21.5498 27.0615 23.5366 27.0615 25.9874C27.0615 26.8043 26.3993 27.4666 25.5823 27.4666H14.7612C13.9442 27.4666 13.282 26.8043 13.282 25.9874Z" fill="#FDB52A"/>
<path d="M20.1744 20.4224C22.3429 20.4224 24.1008 18.6564 24.1008 16.4779C24.1008 14.2994 22.3429 12.5334 20.1744 12.5334C18.0059 12.5334 16.248 14.2994 16.248 16.4779C16.248 18.6564 18.0059 20.4224 20.1744 20.4224Z" fill="#FDB52A"/>
</svg>
