<svg width="40" height="40" viewBox="0 0 40 40" fill="none" xmlns="http://www.w3.org/2000/svg">
<rect opacity="0.2" x="0.180176" width="39.8159" height="40" rx="19.908" fill="#086CD9"/>
<path d="M20.0882 12C18.5132 12 16.9736 12.4692 15.6641 13.3482C14.3545 14.2273 13.3339 15.4767 12.7312 16.9385C12.1285 18.4003 11.9708 20.0089 12.278 21.5607C12.5853 23.1126 13.3437 24.538 14.4574 25.6569C15.571 26.7757 16.9899 27.5376 18.5346 27.8463C20.0794 28.155 21.6805 27.9965 23.1356 27.391C24.5906 26.7855 25.8343 25.7602 26.7093 24.4446C27.5843 23.129 28.0514 21.5822 28.0514 20C28.0473 17.8795 27.207 15.847 25.7145 14.3476C24.222 12.8482 22.1989 12.0041 20.0882 12ZM16.4129 20.9231C16.2311 20.9231 16.0535 20.8689 15.9024 20.7675C15.7513 20.6661 15.6335 20.5219 15.564 20.3532C15.4944 20.1846 15.4762 19.999 15.5117 19.8199C15.5472 19.6409 15.6347 19.4764 15.7632 19.3473C15.8917 19.2182 16.0554 19.1303 16.2336 19.0947C16.4119 19.059 16.5966 19.0773 16.7645 19.1472C16.9324 19.2171 17.0759 19.3354 17.1768 19.4872C17.2778 19.639 17.3317 19.8174 17.3317 20C17.3317 20.2448 17.2349 20.4796 17.0626 20.6527C16.8903 20.8258 16.6566 20.9231 16.4129 20.9231ZM20.0882 20.9231C19.9065 20.9231 19.7288 20.8689 19.5777 20.7675C19.4266 20.6661 19.3088 20.5219 19.2393 20.3532C19.1698 20.1846 19.1516 19.999 19.187 19.8199C19.2225 19.6409 19.31 19.4764 19.4385 19.3473C19.567 19.2182 19.7307 19.1303 19.9089 19.0947C20.0872 19.059 20.2719 19.0773 20.4398 19.1472C20.6077 19.2171 20.7512 19.3354 20.8522 19.4872C20.9531 19.639 21.007 19.8174 21.007 20C21.007 20.2448 20.9102 20.4796 20.7379 20.6527C20.5656 20.8258 20.3319 20.9231 20.0882 20.9231ZM23.7635 20.9231C23.5818 20.9231 23.4041 20.8689 23.253 20.7675C23.1019 20.6661 22.9842 20.5219 22.9146 20.3532C22.8451 20.1846 22.8269 19.999 22.8623 19.8199C22.8978 19.6409 22.9853 19.4764 23.1138 19.3473C23.2423 19.2182 23.406 19.1303 23.5842 19.0947C23.7625 19.059 23.9472 19.0773 24.1151 19.1472C24.283 19.2171 24.4265 19.3354 24.5275 19.4872C24.6284 19.639 24.6823 19.8174 24.6823 20C24.6823 20.2448 24.5855 20.4796 24.4132 20.6527C24.2409 20.8258 24.0072 20.9231 23.7635 20.9231Z" fill="#086CD9"/>
</svg>
