<svg width="41" height="29" viewBox="0 0 41 29" fill="none" xmlns="http://www.w3.org/2000/svg">
<rect x="0.115234" y="0.0703125" width="40" height="28" rx="4" fill="#0A1330"/>
<path d="M9.64197 20.2535V14.9009H15.3101L15.9182 15.6935L16.5464 14.9009H37.1203V19.8844C37.1203 19.8844 36.5822 20.2481 35.9599 20.2535H24.5678L23.8822 19.4097V20.2535H21.6354V18.8132C21.6354 18.8132 21.3285 19.0142 20.6649 19.0142H19.9002V20.2535H16.4984L15.8911 19.4438L15.2745 20.2535H9.64197Z" fill="#016FD0"/>
<path d="M3.02356 10.8667L4.30174 7.88713H6.51222L7.2376 9.55615V7.88713H9.98543L10.4172 9.09345L10.8359 7.88713H23.1708V8.49359C23.1708 8.49359 23.8192 7.88713 24.8849 7.88713L28.8871 7.90112L29.6 9.54829V7.88713H31.8995L32.5324 8.8333V7.88713H34.853V13.2398H32.5324L31.9259 12.2905V13.2398H28.5474L28.2076 12.396H27.2993L26.9651 13.2398H24.6739C23.757 13.2398 23.1708 12.6457 23.1708 12.6457V13.2398H19.7162L19.0306 12.396V13.2398H6.18475L5.84523 12.396H4.93986L4.60274 13.2398H3.02356V10.8667Z" fill="#016FD0"/>
<path d="M4.75328 8.54683L3.0293 12.5552H4.1517L4.4698 11.7525H6.31904L6.63549 12.5552H7.78262L6.06028 8.54683H4.75328ZM5.39112 9.47969L5.9548 10.8823H4.8258L5.39112 9.47969Z" fill="white"/>
<path d="M7.90173 12.5542V8.54588L9.49673 8.5518L10.4244 11.1361L11.3299 8.54588H12.9122V12.5542H11.9101V9.6007L10.8478 12.5542H9.96902L8.90382 9.6007V12.5542H7.90173Z" fill="white"/>
<path d="M13.5983 12.5543V8.54588H16.8683V9.44249H14.6109V10.1281H16.8155V10.972H14.6109V11.684H16.8683V12.5543H13.5983Z" fill="white"/>
<path d="M17.4473 8.54683V12.5552H18.4494V11.1312H18.8713L20.0728 12.5552H21.2974L19.9789 11.0784C20.52 11.0328 21.0782 10.5683 21.0782 9.84725C21.0782 9.00375 20.4162 8.54683 19.6773 8.54683H17.4473ZM18.4494 9.44344H19.5949C19.8696 9.44344 20.0695 9.65839 20.0695 9.86538C20.0695 10.1317 19.8105 10.2873 19.6097 10.2873H18.4494V9.44344Z" fill="white"/>
<path d="M22.5121 12.5543H21.4889V8.54588H22.5121V12.5543Z" fill="white"/>
<path d="M24.9378 12.5543H24.7169C23.6483 12.5543 22.9995 11.7124 22.9995 10.5666C22.9995 9.39242 23.6411 8.54588 24.9905 8.54588H26.0981V9.49523H24.95C24.4022 9.49523 24.0148 9.92274 24.0148 10.5764C24.0148 11.3527 24.4578 11.6787 25.096 11.6787H25.3597L24.9378 12.5543Z" fill="white"/>
<path d="M27.1189 8.54683L25.3949 12.5552H26.5173L26.8354 11.7525H28.6846L29.0011 12.5552H30.1482L28.4259 8.54683H27.1189ZM27.7567 9.47969L28.3204 10.8823H27.1914L27.7567 9.47969Z" fill="white"/>
<path d="M30.2645 12.5543V8.54588H31.5386L33.1653 11.0643V8.54588H34.1674V12.5543H32.9346L31.2666 9.96991V12.5543H30.2645Z" fill="white"/>
<path d="M10.3285 19.5685V15.5601H13.5985V16.4567H11.3411V17.1423H13.5457V17.9862H11.3411V18.6982H13.5985V19.5685H10.3285Z" fill="white"/>
<path d="M26.351 19.5685V15.5601H29.6209V16.4567H27.3636V17.1423H29.5577V17.9862H27.3636V18.6982H29.6209V19.5685H26.351Z" fill="white"/>
<path d="M13.7254 19.5684L15.3175 17.589L13.6875 15.5601H14.95L15.9208 16.8143L16.8948 15.5601H18.1079L16.4993 17.5643L18.0943 19.5684H16.832L15.8895 18.334L14.9698 19.5684H13.7254Z" fill="white"/>
<path d="M18.2125 15.5606V19.5689H19.241V18.3031H20.2958C21.1884 18.3031 21.8649 17.8296 21.8649 16.9088C21.8649 16.1459 21.3343 15.5606 20.426 15.5606H18.2125ZM19.241 16.4671H20.3519C20.6402 16.4671 20.8463 16.6438 20.8463 16.9286C20.8463 17.1961 20.6413 17.39 20.3486 17.39H19.241V16.4671Z" fill="white"/>
<path d="M22.3007 15.5601V19.5685H23.3028V18.1444H23.7247L24.9262 19.5685H26.1508L24.8323 18.0917C25.3734 18.046 25.9316 17.5816 25.9316 16.8605C25.9316 16.017 25.2696 15.5601 24.5307 15.5601H22.3007ZM23.3028 16.4567H24.4482C24.723 16.4567 24.9229 16.6716 24.9229 16.8786C24.9229 17.1449 24.6639 17.3006 24.4631 17.3006H23.3028V16.4567Z" fill="white"/>
<path d="M30.085 19.5685V18.6982H32.0905C32.3873 18.6982 32.5157 18.5379 32.5157 18.362C32.5157 18.1935 32.3877 18.0231 32.0905 18.0231H31.1842C30.3965 18.0231 29.9578 17.5432 29.9578 16.8226C29.9578 16.1799 30.3595 15.5601 31.5301 15.5601H33.4816L33.0596 16.462H31.3719C31.0493 16.462 30.95 16.6313 30.95 16.7929C30.95 16.9591 31.0727 17.1423 31.3192 17.1423H32.2685C33.1467 17.1423 33.5277 17.6405 33.5277 18.2928C33.5277 18.9941 33.1031 19.5685 32.2207 19.5685H30.085Z" fill="white"/>
<path d="M33.7621 19.5685V18.6982H35.7676C36.0644 18.6982 36.1929 18.5379 36.1929 18.362C36.1929 18.1935 36.0648 18.0231 35.7676 18.0231H34.8614C34.0736 18.0231 33.6349 17.5432 33.6349 16.8226C33.6349 16.1799 34.0367 15.5601 35.2073 15.5601H37.1188L36.7368 16.462H35.049C34.7264 16.462 34.6271 16.6313 34.6271 16.7929C34.6271 16.9591 34.7498 17.1423 34.9963 17.1423H35.9456C36.8238 17.1423 37.2049 17.6405 37.2049 18.2928C37.2049 18.9941 36.7802 19.5685 35.8978 19.5685H33.7621Z" fill="white"/>
</svg>
