<svg width="41" height="29" viewBox="0 0 41 29" fill="none" xmlns="http://www.w3.org/2000/svg">
<rect x="0.115234" y="0.0703125" width="40" height="28" rx="4" fill="#0A1330"/>
<path d="M24.3145 7.51999C27.891 7.52003 30.79 10.4531 30.79 14.0708C30.7898 17.6882 27.8908 20.6205 24.3145 20.6206C22.7108 20.6206 21.2443 20.0298 20.1133 19.0532C18.9823 20.0294 17.5164 20.6206 15.9131 20.6206C12.3368 20.6204 9.43774 17.6881 9.4375 14.0708C9.4375 10.4532 12.3367 7.52016 15.9131 7.51999C17.5162 7.51999 18.9824 8.11044 20.1133 9.0864C21.2443 8.11008 22.711 7.51999 24.3145 7.51999Z" fill="#ED0006"/>
<path d="M24.3165 7.51999C27.8931 7.51999 30.7931 10.4531 30.7931 14.0708C30.7928 17.6882 27.8929 20.6206 24.3165 20.6206C22.7132 20.6205 21.2473 20.0295 20.1163 19.0532C21.5079 17.8518 22.3916 16.0663 22.3917 14.0708C22.3917 12.0748 21.5083 10.2878 20.1163 9.0864C21.2472 8.11032 22.7134 7.52006 24.3165 7.51999Z" fill="#F9A000"/>
<path d="M20.1145 9.08569C21.5066 10.2871 22.3898 12.074 22.3899 14.0701C22.3899 16.0659 21.5063 17.852 20.1145 19.0535C18.7228 17.852 17.8391 16.0659 17.8391 14.0701C17.8392 12.074 18.7224 10.2871 20.1145 9.08569Z" fill="#FF5E00"/>
</svg>
