<svg width="41" height="41" viewBox="0 0 41 41" fill="none" xmlns="http://www.w3.org/2000/svg">
<mask id="mask0_0_5933" style="mask-type:alpha" maskUnits="userSpaceOnUse" x="0" y="0" width="41" height="41">
<rect x="0.0117188" y="0.130859" width="40" height="40" rx="6" fill="#E9EAF3"/>
</mask>
<g mask="url(#mask0_0_5933)">
<rect x="1.86353" y="1.9834" width="36.2949" height="36.2949" rx="5.44424" fill="#0A1330"/>
<path d="M12.595 30.4973C13.047 30.6825 13.7551 31.3014 15.8137 31.3635C19.0654 31.4615 21.0866 31.4289 23.1672 31.4289C23.7395 31.4289 25.4714 31.4771 27.1213 30.5949C25.4714 31.7221 25.6178 33.1434 25.5852 33.5197C25.5591 33.8203 25.4657 35.1044 25.4221 35.7092C25.3962 36.0686 25.1766 36.3943 24.425 36.5588C23.3793 36.7875 20.4055 37.3269 15.8958 36.6896C14.3765 36.3792 14.425 35.9711 14.425 35.4484C14.425 35.0532 14.3764 33.5851 14.0823 32.425C13.9876 32.0518 13.4608 31.0364 12.595 30.4973ZM15.8381 3.77948C20.3475 3.14229 23.3214 3.68154 24.3674 3.91034C25.1188 4.07469 25.355 4.37723 25.3811 4.73651L25.3831 4.76092C25.4273 5.37503 25.5184 6.64527 25.5442 6.94256C25.5769 7.31838 25.659 8.49487 26.6721 9.68768C25.5872 9.21709 24.2206 9.13885 23.6487 9.13885H15.9036C14.701 9.13889 13.4962 9.50934 13.0442 9.69452C13.5997 9.13896 13.9741 8.40335 14.0569 8.02753C14.2693 7.06348 14.3674 5.41589 14.3674 5.02069C14.3674 4.49808 14.3193 4.08984 15.8381 3.77948Z" fill="#081028"/>
<path d="M24.2034 9.02246C27.0622 9.02258 29.3829 11.3171 29.429 14.165C29.443 14.1625 29.4579 14.1602 29.4729 14.1602C29.6989 14.1601 29.9598 14.154 30.095 14.335C30.1275 14.3787 30.1544 14.432 30.1682 14.4961C30.23 14.784 30.2914 16.5277 30.2141 17.2314C30.1369 17.935 29.9982 17.8238 29.9055 17.8877C29.8188 17.9475 29.5432 17.9211 29.4319 17.8916V26.4082C29.4318 29.2958 27.091 31.6366 24.2034 31.6367H15.4788C12.5912 31.6366 10.2503 29.2958 10.2502 26.4082V14.251C10.2504 11.3634 12.5912 9.02259 15.4788 9.02246H24.2034Z" fill="#7E89AC"/>
<rect x="11.0673" y="9.84058" width="17.545" height="20.978" rx="4.34641" fill="#081028"/>
<rect x="11.6917" y="10.4219" width="16.3329" height="19.9521" rx="3.54575" fill="#0B1739"/>
</g>
</svg>
